<?xml version="1.0" encoding="UTF-8" standalone="no"?> <svg xmlns="http://www.w3.org/2000/svg" xmlns:xlink="http://www.w3.org/1999/xlink" class="icon" viewBox="0 0 1024 1024" version="1.1" width="81" height="81"><path d="M111.856086 584.251049a36.586048 36.586048 0 0 1-0.511693-47.945632L207.030981 428.952229a27.375575 27.375575 0 0 1 20.365381-9.51749h623.037378c16.06716 0 29.115331 14.839097 29.115331 33.260044v209.231261c0 18.369778-13.048171 33.260044-29.115331 33.260044h-285.93404c-16.06716 0-29.064162 14.839097-29.064161 33.208875v261.782131c0 18.318609-13.048171 33.208875-29.064162 33.208874H450.187488c-16.06716 0-29.064162-14.839097-29.064162-33.260044v-261.730961c0-18.369778-13.048171-33.260044-29.064161-33.260044H226.935838a27.222067 27.222067 0 0 1-19.853687-8.954627L111.856086 584.251049zM912.348591 201.095343c12.229462 12.792325 11.973616 33.771737-0.511693 46.205876l-98.603238 98.193884a29.1665 29.1665 0 0 1-20.570058 8.698781h-649.85009c-16.681191 0-30.189886-14.378573-30.189886-32.08315v-201.607036c0-17.653408 13.508695-31.980812 30.189886-31.980812h244.179892c16.630022 0 30.138717-14.327404 30.138717-32.031981V32.031981C417.132121 14.327404 430.640816 0 447.270837 0H505.347991c16.630022 0 30.138717 14.327404 30.138717 32.031981v24.458924c0 17.704577 13.457525 32.031981 30.087547 32.031981h226.526485c7.880072 0 15.504297 3.274835 21.13292 9.159305l99.063762 103.413152z" fill="#15757C"></path></svg> 